# xmcd
#
# Track frame offsets: 
#        183
#        13258
#        27093
#        40230
#        50193
#        61693
#        73855
#        85918
#        102793
#        113830
#        126643
#        137630
#        151493
#        162943
#        173430
#        188818
#        203355
#        217618
#        237743
#        250630
#
# Disc length: 3516 seconds
#
# Revision: 2
# Processed by: cddbd v1.5.2PL0 Copyright (c) Steve Scherf et al.
# Submitted via: ExactAudioCopy v1.0b3
#
DISCID=0f0dba14
DTITLE=Various Artist - World Of The Blues
DYEAR=1989
DGENRE=Blues
TTITLE0=Waters, Muddy - Mannish Boy
TTITLE1=Howlin' Wolf - Smokestack Lightning
TTITLE2=James, Elmore - Dust My Broom
TTITLE3=Hooker, John Lee - Dimples
TTITLE4=Williamson, Sonny Boy - Born Blind
TTITLE5=Little Milton - Grits Ain't Groceries
TTITLE6=Little Walter - My Babe
TTITLE7=Collier, Mitty - Had A Talk With My Man
TTITLE8=Fulson, Lowell - Rock 'Em Dead
TTITLE9=Waters, Muddy - I'm Your Hoochie Coochie Man
TTITLE10=Howlin' Wolf - The Red Rooster
TTITLE11=James, Elmore - It Hurts Me Too
TTITLE12=Hooker, John Lee - Boom Boom
TTITLE13=Williamson, Sonny Boy - Let Your Conscience Be Your Guide
TTITLE14=Little Milton - Blind Mind
TTITLE15=Little Walter - Sad Hours
TTITLE16=Holiday, Billie - God Bless The Child
TTITLE17=Fulson, Lowell - I Want To Know
TTITLE18=Waters, Muddy - I Just Want To Make Love To You
TTITLE19=Hooker, John Lee - I'm So Excited
EXTD=YEAR: 1989
EXTT0=
EXTT1=
EXTT2=
EXTT3=
EXTT4=
EXTT5=
EXTT6=
EXTT7=
EXTT8=
EXTT9=
EXTT10=
EXTT11=
EXTT12=
EXTT13=
EXTT14=
EXTT15=
EXTT16=
EXTT17=
EXTT18=
EXTT19=
PLAYORDER=
